Coordinates
version=1
nRows=12
nColumns=42
inDegrees=yes

Units are S.I. units (second, meters, Newtons, ...)
If the header above contains a line with 'inDegrees', this indicates whether rotational values are in degrees (yes) or radians (no).

endheader
time	pelvis_tilt	pelvis_list	pelvis_rotation	pelvis_tx	pelvis_ty	pelvis_tz	hip_flexion_r	hip_adduction_r	hip_rotation_r	knee_angle_r	knee_adduction_r	knee_angle_r_beta	ankle_angle_r	subtalar_angle_r	mtp_angle_r	hip_flexion_l	hip_adduction_l	hip_rotation_l	knee_angle_l	knee_adduction_l	knee_angle_l_beta	ankle_angle_l	subtalar_angle_l	mtp_angle_l	lumbar_extension	lumbar_bending	lumbar_rotation	arm_flex_r	arm_add_r	arm_rot_r	elbow_flex_r	pro_sup_r	wrist_flex_r	wrist_dev_r	arm_flex_l	arm_add_l	arm_rot_l	elbow_flex_l	pro_sup_l	wrist_flex_l	wrist_dev_l
      1.56000000	     -3.51622111	      3.85406553	     -1.97229206	      1.21001638	      0.93878684	     -0.22258874	      3.60757171	     -3.89761471	     -8.86089517	     56.94741994	     -5.55382818	      0.99391998	     -7.65125732	    -18.65772080	     -7.53682139	     28.97126768	      7.14473046	     -5.51041407	     30.24113693	     -3.70935174	      0.52780741	      0.91388818	    -14.41036225	     -7.53682139	     -8.20287778	     -6.32401344	      7.44611210	      2.55239658	     -8.30707306	     -2.19593732	     39.56651546	     90.00000001	      0.00000000	      0.00000000	     -4.66648728	     -8.31180838	    -18.26802480	     18.65665873	     90.00000001	      0.00000000	      0.00000000
      1.57000000	     -3.46937316	      3.64384830	     -2.04270750	      1.22463840	      0.94178997	     -0.22288272	      5.43123700	     -3.78661485	     -9.44845150	     58.62150981	     -6.23904319	      1.02313836	     -6.86368435	    -18.81673904	     -7.53618777	     27.77179510	      7.00288661	     -5.61040121	     29.99551545	     -3.77859644	      0.52352051	      1.88802950	    -14.00390839	     -7.53618777	     -8.25052870	     -6.06105389	      7.30232490	      2.08238304	     -8.28354041	     -2.19826790	     39.16630602	     90.00000001	      0.00000000	      0.00000000	     -4.30629259	     -8.10208258	    -18.24557153	     19.03462134	     90.00000001	      0.00000000	      0.00000000
      1.58000000	     -3.42526165	      3.36079321	     -2.11302986	      1.23904247	      0.94487792	     -0.22313619	      7.24974595	     -3.55363763	     -9.89826717	     59.99096966	     -6.82469380	      1.04703994	     -5.97922293	    -18.88788396	     -7.53568184	     26.49999022	      6.77292126	     -5.65942792	     29.57724203	     -3.81673681	      0.51622026	      2.71006703	    -13.57009359	     -7.53568184	     -8.30918789	     -5.69550617	      7.11231735	      1.64900953	     -8.32236987	     -2.19709213	     38.82469973	     90.00000001	      0.00000000	      0.00000000	     -3.89322856	     -7.84081549	    -18.17865941	     19.42919452	     90.00000001	      0.00000000	      0.00000000
      1.59000000	     -3.47488415	      3.05709157	     -2.09007423	      1.25335818	      0.94786621	     -0.22340330	      9.13660696	     -3.31242877	    -10.43169012	     61.05291276	     -7.31349403	      1.06557435	     -4.87995935	    -18.89159904	     -7.53501752	     25.27268343	      6.53214599	     -5.54686787	     29.05876880	     -3.78268345	      0.50717119	      3.68237402	    -13.01004024	     -7.53501752	     -8.24185682	     -5.31313510	      6.86687094	      1.15617053	     -8.30816021	     -2.16155140	     38.37597444	     90.00000001	      0.00000000	      0.00000000	     -3.46597405	     -7.64811100	    -18.08254228	     19.87936073	     90.00000001	      0.00000000	      0.00000000
      1.60000000	     -3.47241480	      2.70491889	     -2.05091780	      1.26756484	      0.95088888	     -0.22367001	     10.91031835	     -2.99957069	    -10.75430818	     61.79289156	     -7.57642639	      1.07848941	     -3.85563974	    -18.86505138	     -7.53418875	     23.93930885	      6.23151146	     -5.41159647	     28.41611221	     -3.72903773	      0.49595472	      4.52082247	    -12.39346950	     -7.53418875	     -8.23818485	     -4.85772038	      6.54958898	      0.71379561	     -8.32895506	     -2.10774865	     37.92837719	     90.00000001	      0.00000000	      0.00000000	     -3.02556298	     -7.42776393	    -17.90024506	     20.37685424	     90.00000001	      0.00000000	      0.00000000
      1.61000000	     -3.45350991	      2.36729711	     -2.00697257	      1.28171867	      0.95389014	     -0.22396018	     12.60443476	     -2.68842430	    -10.84061982	     62.20868857	     -7.60338777	      1.08574644	     -2.92731672	    -18.84301539	     -7.53347187	     22.52725933	      5.93702402	     -5.26598036	     27.63708231	     -3.65084290	      0.48235808	      5.19581162	    -11.83408159	     -7.53347187	     -8.24938403	     -4.41261618	      6.26944364	      0.19283667	     -8.38355693	     -2.05124839	     37.55720768	     90.00000001	      0.00000000	      0.00000000	     -2.51711404	     -7.22370704	    -17.65748797	     20.90706067	     90.00000001	      0.00000000	      0.00000000
      1.62000000	     -3.45049274	      2.03917631	     -1.94255329	      1.29582718	      0.95674659	     -0.22428005	     14.24839568	     -2.37174765	    -10.81706819	     62.30164989	     -7.49861333	      1.08736892	     -2.16554960	    -18.82356681	     -7.53299214	     21.11318271	      5.64621073	     -5.20831062	     26.78179888	     -3.60314520	      0.46743057	      5.67784178	    -11.33227889	     -7.53299214	     -8.22397908	     -3.96373799	      5.96389412	     -0.37789888	     -8.45237293	     -2.01464715	     37.26606604	     90.00000001	      0.00000000	      0.00000000	     -1.97088566	     -7.01288880	    -17.43244278	     21.42211419	     90.00000001	      0.00000000	      0.00000000
      1.63000000	     -3.39287574	      1.74344914	     -1.78210242	      1.30986381	      0.95945917	     -0.22467491	     15.74245739	     -2.14053723	    -10.53711005	     62.12911329	     -7.00916148	      1.08435759	     -1.29301520	    -18.72631251	     -7.53232371	     19.57012436	      5.40107685	     -4.83396662	     25.80770692	     -3.40410769	      0.45042946	      6.35970525	    -10.69296676	     -7.53232371	     -8.28682232	     -3.55389147	      5.57120656	     -0.92725541	     -8.51081925	     -1.92381046	     36.91715649	     90.00000001	      0.00000000	      0.00000000	     -1.40507386	     -6.86733039	    -17.00958333	     22.06306379	     90.00000001	      0.00000000	      0.00000000
      1.64000000	     -3.31830433	      1.47584644	     -1.61249377	      1.32388820	      0.96194529	     -0.22515127	     17.12883973	     -1.94584326	     -9.97724592	     61.66128178	     -6.24691172	      1.07619239	     -0.57228028	    -18.67237551	     -7.52774128	     18.03921802	      5.19313597	     -4.72996911	     24.83199522	     -3.34636548	      0.43340008	      6.93777369	    -10.00551653	     -7.52774128	     -8.34756285	     -3.14646222	      5.12951559	     -1.46458416	     -8.67929014	     -1.48451312	     36.54091463	     90.00000001	      0.00000000	      0.00000000	     -1.41256209	     -7.16320911	    -13.26988701	     23.39309718	     90.00000001	      0.00000000	      0.00000000
      1.65000000	     -3.25221064	      1.21931198	     -1.39272832	      1.33788644	      0.96419131	     -0.22560151	     18.44232752	     -1.76200862	     -9.61121980	     60.86519003	     -5.61439215	      1.06229797	     -0.00803312	    -18.55958736	     -7.52707309	     16.47748978	      4.98453962	     -4.48543322	     23.77813773	     -3.23320042	      0.41500679	      7.40469360	     -9.38338689	     -7.52707309	     -8.41202343	     -2.76622114	      4.69720497	     -2.07648802	     -8.73705870	     -1.52254154	     36.33872868	     90.00000001	      0.00000000	      0.00000000	     -0.72191808	     -7.04358821	    -12.93802803	     23.99659418	     90.00000001	      0.00000000	      0.00000000
      1.66000000	     -3.31146931	      0.99525079	     -1.18490564	      1.35182282	      0.96593723	     -0.22608263	     19.86289435	     -1.59369215	     -9.38372921	     59.83350116	     -5.15601378	      1.04429160	      0.45697339	    -18.39256302	     -7.52669299	     15.12929489	      4.80662827	     -4.51574777	     22.81300161	     -3.23903336	      0.39816199	      7.72333671	     -8.85479390	     -7.52669299	     -8.30328457	     -2.39533714	      4.27503731	     -2.73670722	     -8.82300174	     -1.53150141	     36.12047173	     90.00000001	      0.00000000	      0.00000000	     -0.07242417	     -6.90837094	    -12.67238145	     24.58107297	     90.00000001	      0.00000000	      0.00000000
      1.67000000	     -3.04719171	      0.81715794	     -0.91139270	      1.36585248	      0.96777377	     -0.22659416	     20.73960005	     -1.56386528	     -8.51516065	     58.49621920	     -3.97078250	      1.02095162	      0.97121486	    -18.37747319	     -7.52582183	     13.31264526	      4.64588544	     -4.16799628	     21.67248473	     -3.01466435	      0.37825622	      8.38928553	     -8.06832378	     -7.52582183	     -8.60073703	     -2.08963112	      3.76852758	     -3.24419204	     -8.91789919	     -1.49302071	     35.87641122	     90.00000001	      0.00000000	      0.00000000	      0.52477047	     -6.93375393	    -11.61843597	     25.53683352	     90.00000001	      0.00000000	      0.00000000
